<svg xmlns="http://www.w3.org/2000/svg" width="115" height="115" fill="none"><g clip-path="url(#a)"><path fill="#000" d="M0 0h115v115H0z"/><mask id="b" width="56" height="57" x="30" y="29" maskUnits="userSpaceOnUse" style="mask-type:luminance"><path fill="#fff" d="M30 29h55.017v56.546H30V29Z"/></mask><g mask="url(#b)"><path fill="#fff" fill-rule="evenodd" d="m41.003 75.338.629.633.06.063c1.946 2.074 1.928 5.407-.06 7.45a5.095 5.095 0 0 1-7.252.063l-.061-.063-.628-.639-1.702-1.755c-2.006-2.061-2.006-5.439 0-7.513a5.096 5.096 0 0 1 7.313 0l1.701 1.761Zm34.483-29.062.61-.62 7.068-7.263c2.007-2.068 2.007-5.445 0-7.513a5.085 5.085 0 0 0-7.312 0l-7.672 7.883-3.66 3.753c-2.006 2.068-2.006 5.445 0 7.513l3.66 3.754.652.664 7.069 7.262a5.085 5.085 0 0 0 7.312 0c2.007-2.061 2.007-5.445 0-7.507l-7.068-7.262-.659-.664ZM32.282 30.93v-.006a5.085 5.085 0 0 1 7.313 0l43.52 44.721c2.013 2.062 2.013 5.445 0 7.507a5.085 5.085 0 0 1-7.312 0L32.282 38.431c-2.006-2.062-2.006-5.44 0-7.501Zm-.061 21.405a5.096 5.096 0 0 1 7.313 0l4.952 5.094 17.79 18.279c2.012 2.061 2.012 5.445 0 7.513a5.096 5.096 0 0 1-7.313 0l-7.062-7.262-15.68-16.11c-2.013-2.062-2.013-5.452 0-7.514Z" clip-rule="evenodd"/></g><g filter="url(#c)"><ellipse cx="1.5" cy="-1.5" fill="#66C7FF" fill-opacity=".5" rx="33.5" ry="32.5"/></g><g filter="url(#d)"><ellipse cx="33.5" cy="32.5" fill="#4D3BFF" fill-opacity=".7" rx="33.5" ry="32.5" transform="matrix(-1 0 0 1 155 -33)"/></g><g filter="url(#e)"><ellipse cx="57.5" cy="128.5" fill="#47B9FF" fill-opacity=".5" rx="57.5" ry="32.5" transform="rotate(180 57.5 128.5)"/></g><path fill="url(#f)" d="M0 0h115v115H0z" style="mix-blend-mode:overlay"/><g filter="url(#g)" style="mix-blend-mode:soft-light"><ellipse cx="57.5" cy="110" fill="#5292DA" fill-opacity=".15" rx="57.5" ry="58"/></g><g filter="url(#h)" style="mix-blend-mode:soft-light"><ellipse cx="48.5" fill="url(#i)" fill-opacity=".15" rx="75.5" ry="58"/></g></g><defs><filter id="c" width="167" height="165" x="-82" y="-84" color-interpolation-filters="sRGB" filterUnits="userSpaceOnUse"><feFlood flood-opacity="0" result="BackgroundImageFix"/><feBlend in="SourceGraphic" in2="BackgroundImageFix" result="shape"/><feGaussianBlur result="effect1_foregroundBlur_887_832" stdDeviation="25"/></filter><filter id="d" width="167" height="165" x="38" y="-83" color-interpolation-filters="sRGB" filterUnits="userSpaceOnUse"><feFlood flood-opacity="0" result="BackgroundImageFix"/><feBlend in="SourceGraphic" in2="BackgroundImageFix" result="shape"/><feGaussianBlur result="effect1_foregroundBlur_887_832" stdDeviation="25"/></filter><filter id="e" width="215" height="165" x="-50" y="46" color-interpolation-filters="sRGB" filterUnits="userSpaceOnUse"><feFlood flood-opacity="0" result="BackgroundImageFix"/><feBlend in="SourceGraphic" in2="BackgroundImageFix" result="shape"/><feGaussianBlur result="effect1_foregroundBlur_887_832" stdDeviation="25"/></filter><filter id="g" width="123" height="124" x="-4" y="48" color-interpolation-filters="sRGB" filterUnits="userSpaceOnUse"><feFlood flood-opacity="0" result="BackgroundImageFix"/><feBlend in="SourceGraphic" in2="BackgroundImageFix" result="shape"/><feGaussianBlur result="effect1_foregroundBlur_887_832" stdDeviation="2"/></filter><filter id="h" width="159" height="124" x="-31" y="-62" color-interpolation-filters="sRGB" filterUnits="userSpaceOnUse"><feFlood flood-opacity="0" result="BackgroundImageFix"/><feBlend in="SourceGraphic" in2="BackgroundImageFix" result="shape"/><feGaussianBlur result="effect1_foregroundBlur_887_832" stdDeviation="2"/></filter><linearGradient id="f" x1="0" x2="115" y1="57.5" y2="57.5" gradientUnits="userSpaceOnUse"><stop stop-color="#fff"/><stop offset="1" stop-color="#999" stop-opacity="0"/></linearGradient><linearGradient id="i" x1="49.157" x2="48.776" y1="20" y2="58.003" gradientUnits="userSpaceOnUse"><stop/><stop offset="1" stop-color="#2C4E74" stop-opacity="0"/></linearGradient><clipPath id="a"><path fill="#fff" d="M0 0h115v115H0z"/></clipPath></defs></svg>